<svg width="226" height="39" viewBox="0 0 226 39" fill="none" xmlns="http://www.w3.org/2000/svg">
<path d="M0.778594 29V0.999998H5.89859V12.64H18.4586V0.999998H23.5786V29H18.4586V16.8H5.89859V29H0.778594ZM35.7408 29.48C34.0341 29.48 32.6341 29.2133 31.5408 28.68C30.4474 28.12 29.6341 27.3867 29.1008 26.48C28.5674 25.5733 28.3008 24.5733 28.3008 23.48C28.3008 21.64 29.0208 20.1467 30.4608 19C31.9008 17.8533 34.0608 17.28 36.9408 17.28H41.9808V16.8C41.9808 15.44 41.5941 14.44 40.8208 13.8C40.0474 13.16 39.0874 12.84 37.9408 12.84C36.9008 12.84 35.9941 13.0933 35.2208 13.6C34.4474 14.08 33.9674 14.8 33.7808 15.76H28.7808C28.9141 14.32 29.3941 13.0667 30.2208 12C31.0741 10.9333 32.1674 10.12 33.5008 9.56C34.8341 8.97333 36.3274 8.68 37.9808 8.68C40.8074 8.68 43.0341 9.38667 44.6608 10.8C46.2874 12.2133 47.1008 14.2133 47.1008 16.8V29H42.7408L42.2608 25.8C41.6741 26.8667 40.8474 27.7467 39.7808 28.44C38.7408 29.1333 37.3941 29.48 35.7408 29.48ZM36.9008 25.48C38.3674 25.48 39.5008 25 40.3008 24.04C41.1274 23.08 41.6474 21.8933 41.8608 20.48H37.5008C36.1408 20.48 35.1674 20.7333 34.5808 21.24C33.9941 21.72 33.7008 22.32 33.7008 23.04C33.7008 23.8133 33.9941 24.4133 34.5808 24.84C35.1674 25.2667 35.9408 25.48 36.9008 25.48ZM51.9867 29V9.16H56.5067L56.9067 12.52C57.5201 11.3467 58.4001 10.4133 59.5467 9.72C60.7201 9.02667 62.0934 8.68 63.6667 8.68C66.1201 8.68 68.0267 9.45333 69.3867 11C70.7467 12.5467 71.4267 14.8133 71.4267 17.8V29H66.3067V18.28C66.3067 16.5733 65.9601 15.2667 65.2667 14.36C64.5734 13.4533 63.4934 13 62.0267 13C60.5867 13 59.4001 13.5067 58.4667 14.52C57.5601 15.5333 57.1067 16.9467 57.1067 18.76V29H51.9867ZM83.1627 29.48C81.456 29.48 80.056 29.2133 78.9627 28.68C77.8693 28.12 77.056 27.3867 76.5227 26.48C75.9893 25.5733 75.7227 24.5733 75.7227 23.48C75.7227 21.64 76.4427 20.1467 77.8827 19C79.3227 17.8533 81.4827 17.28 84.3627 17.28H89.4027V16.8C89.4027 15.44 89.016 14.44 88.2427 13.8C87.4693 13.16 86.5093 12.84 85.3627 12.84C84.3227 12.84 83.416 13.0933 82.6427 13.6C81.8693 14.08 81.3893 14.8 81.2027 15.76H76.2027C76.336 14.32 76.816 13.0667 77.6427 12C78.496 10.9333 79.5893 10.12 80.9227 9.56C82.256 8.97333 83.7493 8.68 85.4027 8.68C88.2293 8.68 90.456 9.38667 92.0827 10.8C93.7093 12.2133 94.5227 14.2133 94.5227 16.8V29H90.1627L89.6827 25.8C89.096 26.8667 88.2693 27.7467 87.2027 28.44C86.1627 29.1333 84.816 29.48 83.1627 29.48ZM84.3227 25.48C85.7893 25.48 86.9227 25 87.7227 24.04C88.5493 23.08 89.0693 21.8933 89.2827 20.48H84.9227C83.5627 20.48 82.5893 20.7333 82.0027 21.24C81.416 21.72 81.1227 22.32 81.1227 23.04C81.1227 23.8133 81.416 24.4133 82.0027 24.84C82.5893 25.2667 83.3627 25.48 84.3227 25.48ZM99.5286 29V0.999998H109.089C112.369 0.999998 115.062 1.58667 117.169 2.76C119.302 3.90667 120.875 5.53333 121.889 7.64C122.929 9.72 123.449 12.1733 123.449 15C123.449 17.8267 122.929 20.2933 121.889 22.4C120.875 24.48 119.302 26.1067 117.169 27.28C115.062 28.4267 112.369 29 109.089 29H99.5286ZM104.649 24.6H108.849C111.195 24.6 113.049 24.2267 114.409 23.48C115.769 22.7067 116.742 21.6133 117.329 20.2C117.915 18.76 118.209 17.0267 118.209 15C118.209 13 117.915 11.28 117.329 9.84C116.742 8.4 115.769 7.29333 114.409 6.52C113.049 5.74667 111.195 5.36 108.849 5.36H104.649V24.6ZM137.486 29.48C135.486 29.48 133.713 29.0533 132.166 28.2C130.619 27.3467 129.406 26.1467 128.526 24.6C127.646 23.0533 127.206 21.2667 127.206 19.24C127.206 17.1867 127.633 15.36 128.486 13.76C129.366 12.16 130.566 10.92 132.086 10.04C133.633 9.13333 135.446 8.68 137.526 8.68C139.473 8.68 141.193 9.10667 142.686 9.96C144.179 10.8133 145.339 11.9867 146.166 13.48C147.019 14.9467 147.446 16.5867 147.446 18.4C147.446 18.6933 147.433 19 147.406 19.32C147.406 19.64 147.393 19.9733 147.366 20.32H132.286C132.393 21.8667 132.926 23.08 133.886 23.96C134.873 24.84 136.059 25.28 137.446 25.28C138.486 25.28 139.353 25.0533 140.046 24.6C140.766 24.12 141.299 23.5067 141.646 22.76H146.846C146.473 24.0133 145.846 25.16 144.966 26.2C144.113 27.2133 143.046 28.0133 141.766 28.6C140.513 29.1867 139.086 29.48 137.486 29.48ZM137.526 12.84C136.273 12.84 135.166 13.2 134.206 13.92C133.246 14.6133 132.633 15.68 132.366 17.12H142.246C142.166 15.8133 141.686 14.7733 140.806 14C139.926 13.2267 138.833 12.84 137.526 12.84ZM159.952 29.48C158.192 29.48 156.646 29.2 155.312 28.64C153.979 28.0533 152.912 27.2533 152.112 26.24C151.312 25.2267 150.832 24.0533 150.672 22.72H155.832C155.992 23.4933 156.419 24.16 157.112 24.72C157.832 25.2533 158.752 25.52 159.872 25.52C160.992 25.52 161.806 25.2933 162.312 24.84C162.846 24.3867 163.112 23.8667 163.112 23.28C163.112 22.4267 162.739 21.8533 161.992 21.56C161.246 21.24 160.206 20.9333 158.872 20.64C158.019 20.4533 157.152 20.2267 156.272 19.96C155.392 19.6933 154.579 19.36 153.832 18.96C153.112 18.5333 152.526 18 152.072 17.36C151.619 16.6933 151.392 15.88 151.392 14.92C151.392 13.16 152.086 11.68 153.472 10.48C154.886 9.28 156.859 8.68 159.392 8.68C161.739 8.68 163.606 9.22667 164.992 10.32C166.406 11.4133 167.246 12.92 167.512 14.84H162.672C162.379 13.3733 161.272 12.64 159.352 12.64C158.392 12.64 157.646 12.8267 157.112 13.2C156.606 13.5733 156.352 14.04 156.352 14.6C156.352 15.1867 156.739 15.6533 157.512 16C158.286 16.3467 159.312 16.6667 160.592 16.96C161.979 17.28 163.246 17.64 164.392 18.04C165.566 18.4133 166.499 18.9867 167.192 19.76C167.886 20.5067 168.232 21.5867 168.232 23C168.259 24.2267 167.939 25.3333 167.272 26.32C166.606 27.3067 165.646 28.08 164.392 28.64C163.139 29.2 161.659 29.48 159.952 29.48ZM175.528 6.08C174.595 6.08 173.821 5.8 173.208 5.24C172.621 4.68 172.328 3.97333 172.328 3.12C172.328 2.26667 172.621 1.57333 173.208 1.04C173.821 0.479998 174.595 0.199999 175.528 0.199999C176.461 0.199999 177.221 0.479998 177.808 1.04C178.421 1.57333 178.728 2.26667 178.728 3.12C178.728 3.97333 178.421 4.68 177.808 5.24C177.221 5.8 176.461 6.08 175.528 6.08ZM172.968 29V9.16H178.088V29H172.968ZM191.832 23.08C190.872 23.08 189.979 22.9733 189.152 22.76L187.672 24.24C188.125 24.48 188.739 24.68 189.512 24.84C190.285 25 191.539 25.16 193.272 25.32C195.912 25.56 197.832 26.1867 199.032 27.2C200.232 28.2133 200.832 29.6133 200.832 31.4C200.832 32.5733 200.512 33.68 199.872 34.72C199.232 35.7867 198.245 36.64 196.912 37.28C195.579 37.9467 193.872 38.28 191.792 38.28C188.965 38.28 186.685 37.7467 184.952 36.68C183.219 35.64 182.352 34.0667 182.352 31.96C182.352 30.1733 183.219 28.6267 184.952 27.32C184.419 27.08 183.952 26.8267 183.552 26.56C183.179 26.2933 182.845 26.0133 182.552 25.72V24.8L186.032 21.12C184.485 19.76 183.712 18.0133 183.712 15.88C183.712 14.5467 184.032 13.3333 184.672 12.24C185.339 11.1467 186.272 10.28 187.472 9.64C188.672 9 190.125 8.68 191.832 8.68C192.952 8.68 193.992 8.84 194.952 9.16H202.472V12.28L199.072 12.52C199.605 13.5333 199.872 14.6533 199.872 15.88C199.872 17.2133 199.552 18.4267 198.912 19.52C198.272 20.6133 197.339 21.48 196.112 22.12C194.912 22.76 193.485 23.08 191.832 23.08ZM191.832 19.16C192.872 19.16 193.725 18.88 194.392 18.32C195.085 17.76 195.432 16.96 195.432 15.92C195.432 14.88 195.085 14.08 194.392 13.52C193.725 12.96 192.872 12.68 191.832 12.68C190.739 12.68 189.859 12.96 189.192 13.52C188.525 14.08 188.192 14.88 188.192 15.92C188.192 16.96 188.525 17.76 189.192 18.32C189.859 18.88 190.739 19.16 191.832 19.16ZM187.032 31.44C187.032 32.4267 187.485 33.16 188.392 33.64C189.325 34.1467 190.459 34.4 191.792 34.4C193.072 34.4 194.112 34.1333 194.912 33.6C195.712 33.0933 196.112 32.4 196.112 31.52C196.112 30.8 195.845 30.2 195.312 29.72C194.805 29.24 193.779 28.9467 192.232 28.84C191.139 28.76 190.125 28.64 189.192 28.48C188.419 28.9067 187.859 29.3733 187.512 29.88C187.192 30.3867 187.032 30.9067 187.032 31.44ZM206.205 29V9.16H210.725L211.125 12.52C211.739 11.3467 212.619 10.4133 213.765 9.72C214.939 9.02667 216.312 8.68 217.885 8.68C220.339 8.68 222.245 9.45333 223.605 11C224.965 12.5467 225.645 14.8133 225.645 17.8V29H220.525V18.28C220.525 16.5733 220.179 15.2667 219.485 14.36C218.792 13.4533 217.712 13 216.245 13C214.805 13 213.619 13.5067 212.685 14.52C211.779 15.5333 211.325 16.9467 211.325 18.76V29H206.205Z" fill="black"/>
</svg>
